<svg xmlns="http://www.w3.org/2000/svg" viewBox="0 0 600 600">
  <defs>
    <linearGradient id="bps-bg" x1="0" y1="0" x2="0" y2="1"><stop offset="0" stop-color="#FF9AD5"></stop><stop offset="1" stop-color="#9AE8FF"></stop></linearGradient>
    <linearGradient id="bps-bub" x1="0" y1="0" x2="1" y2="1"><stop offset="0" stop-color="#FFFFFF"></stop><stop offset=".5" stop-color="#FFD1EC"></stop><stop offset="1" stop-color="#8E7CFF"></stop></linearGradient>
  </defs>
  <rect width="600" height="600" fill="url(#bps-bg)"></rect>
  <g opacity=".55" fill="#FFFFFF">
    <circle cx="70" cy="480" r="4"></circle><circle cx="110" cy="500" r="3"></circle><circle cx="90" cy="452" r="2.5"></circle>
    <circle cx="520" cy="120" r="4"></circle><circle cx="548" cy="152" r="3"></circle><circle cx="500" cy="90" r="2.5"></circle>
  </g>
  <circle cx="310" cy="260" r="150" fill="url(#bps-bub)"></circle>
  <circle cx="310" cy="260" r="150" fill="none" stroke="#FFFFFF" stroke-width="4" opacity=".8"></circle>
  <path d="M212 190 A118 118 0 0 1 292 138" stroke="#FFFFFF" stroke-width="14" fill="none" stroke-linecap="round" opacity=".95"></path>
  <circle cx="470" cy="420" r="56" fill="url(#bps-bub)" opacity=".9"></circle>
  <circle cx="130" cy="170" r="38" fill="url(#bps-bub)" opacity=".85"></circle>
  <g fill="#FFFFFF">
    <path d="M120 356 l7 20 20 7 -20 7 -7 20 -7 -20 -20 -7 20 -7 Z"></path>
    <path d="M492 250 l5 15 15 5 -15 5 -5 15 -5 -15 -15 -5 15 -5 Z"></path>
  </g>
  <rect x="0" y="506" width="600" height="94" fill="#FFFFFF" opacity=".92"></rect>
  <text x="84" y="548" font-family="sans-serif" font-weight="bold" font-size="27" fill="#3A2450">BUBBLE POP STATIC ★</text>
  <text x="84" y="576" font-family="monospace" font-size="14" letter-spacing="4" fill="#8A6AA8">NEON LIZARD · Y2KRUSH</text>
</svg>
